<?xml version="1.0" encoding="utf-8" standalone="no"?>
<!DOCTYPE svg PUBLIC "-//W3C//DTD SVG 1.1//EN"
  "http://www.w3.org/Graphics/SVG/1.1/DTD/svg11.dtd">
<svg xmlns:xlink="http://www.w3.org/1999/xlink" width="526.556875pt" height="362.306875pt" viewBox="0 0 526.556875 362.306875" xmlns="http://www.w3.org/2000/svg" version="1.1">
 <metadata>
  <rdf:RDF xmlns:dc="http://purl.org/dc/elements/1.1/" xmlns:cc="http://creativecommons.org/ns#" xmlns:rdf="http://www.w3.org/1999/02/22-rdf-syntax-ns#">
   <cc:Work>
    <dc:type rdf:resource="http://purl.org/dc/dcmitype/StillImage"/>
    <dc:date>2026-06-17T18:48:52.739418</dc:date>
    <dc:format>image/svg+xml</dc:format>
    <dc:creator>
     <cc:Agent>
      <dc:title>Matplotlib v3.10.8, https://matplotlib.org/</dc:title>
     </cc:Agent>
    </dc:creator>
   </cc:Work>
  </rdf:RDF>
 </metadata>
 <defs>
  <style type="text/css">*{stroke-linejoin: round; stroke-linecap: butt}</style>
 </defs>
 <g id="figure_1">
  <g id="patch_1">
   <path d="M 0 362.306875 
L 526.556875 362.306875 
L 526.556875 0 
L 0 0 
z
" style="fill: #ffffff"/>
  </g>
  <g id="axes_1">
   <g id="patch_2">
    <path d="M 45.056875 325.718437 
L 519.356875 325.718437 
L 519.356875 20.798437 
L 45.056875 20.798437 
z
" style="fill: #ffffff"/>
   </g>
   <g id="matplotlib.axis_1">
    <g id="xtick_1">
     <g id="line2d_1">
      <path d="M 56.914375 325.718437 
L 56.914375 20.798437 
" clip-path="url(#p7c14e3e7be)" style="fill: none; stroke: #b0b0b0; stroke-opacity: 0.25; stroke-width: 0.6; stroke-linecap: square"/>
     </g>
     <g id="line2d_2">
      <defs>
       <path id="m0258bccd8d" d="M 0 0 
L 0 3.5 
" style="stroke: #000000; stroke-width: 0.8"/>
      </defs>
      <g>
       <use xlink:href="#m0258bccd8d" x="56.914375" y="325.718437" style="stroke: #000000; stroke-width: 0.8"/>
      </g>
     </g>
     <g id="text_1">
      <text style="font-size: 9px; font-family: 'DejaVu Sans'; text-anchor: middle" x="56.914375" y="339.557031" transform="rotate(-0 56.914375 339.557031)">1</text>
     </g>
    </g>
    <g id="xtick_2">
     <g id="line2d_3">
      <path d="M 80.629375 325.718437 
L 80.629375 20.798437 
" clip-path="url(#p7c14e3e7be)" style="fill: none; stroke: #b0b0b0; stroke-opacity: 0.25; stroke-width: 0.6; stroke-linecap: square"/>
     </g>
     <g id="line2d_4">
      <g>
       <use xlink:href="#m0258bccd8d" x="80.629375" y="325.718437" style="stroke: #000000; stroke-width: 0.8"/>
      </g>
     </g>
     <g id="text_2">
      <text style="font-size: 9px; font-family: 'DejaVu Sans'; text-anchor: middle" x="80.629375" y="339.557031" transform="rotate(-0 80.629375 339.557031)">2</text>
     </g>
    </g>
    <g id="xtick_3">
     <g id="line2d_5">
      <path d="M 104.344375 325.718437 
L 104.344375 20.798437 
" clip-path="url(#p7c14e3e7be)" style="fill: none; stroke: #b0b0b0; stroke-opacity: 0.25; stroke-width: 0.6; stroke-linecap: square"/>
     </g>
     <g id="line2d_6">
      <g>
       <use xlink:href="#m0258bccd8d" x="104.344375" y="325.718437" style="stroke: #000000; stroke-width: 0.8"/>
      </g>
     </g>
     <g id="text_3">
      <text style="font-size: 9px; font-family: 'DejaVu Sans'; text-anchor: middle" x="104.344375" y="339.557031" transform="rotate(-0 104.344375 339.557031)">3</text>
     </g>
    </g>
    <g id="xtick_4">
     <g id="line2d_7">
      <path d="M 128.059375 325.718437 
L 128.059375 20.798437 
" clip-path="url(#p7c14e3e7be)" style="fill: none; stroke: #b0b0b0; stroke-opacity: 0.25; stroke-width: 0.6; stroke-linecap: square"/>
     </g>
     <g id="line2d_8">
      <g>
       <use xlink:href="#m0258bccd8d" x="128.059375" y="325.718437" style="stroke: #000000; stroke-width: 0.8"/>
      </g>
     </g>
     <g id="text_4">
      <text style="font-size: 9px; font-family: 'DejaVu Sans'; text-anchor: middle" x="128.059375" y="339.557031" transform="rotate(-0 128.059375 339.557031)">4</text>
     </g>
    </g>
    <g id="xtick_5">
     <g id="line2d_9">
      <path d="M 151.774375 325.718437 
L 151.774375 20.798437 
" clip-path="url(#p7c14e3e7be)" style="fill: none; stroke: #b0b0b0; stroke-opacity: 0.25; stroke-width: 0.6; stroke-linecap: square"/>
     </g>
     <g id="line2d_10">
      <g>
       <use xlink:href="#m0258bccd8d" x="151.774375" y="325.718437" style="stroke: #000000; stroke-width: 0.8"/>
      </g>
     </g>
     <g id="text_5">
      <text style="font-size: 9px; font-family: 'DejaVu Sans'; text-anchor: middle" x="151.774375" y="339.557031" transform="rotate(-0 151.774375 339.557031)">5</text>
     </g>
    </g>
    <g id="xtick_6">
     <g id="line2d_11">
      <path d="M 175.489375 325.718437 
L 175.489375 20.798437 
" clip-path="url(#p7c14e3e7be)" style="fill: none; stroke: #b0b0b0; stroke-opacity: 0.25; stroke-width: 0.6; stroke-linecap: square"/>
     </g>
     <g id="line2d_12">
      <g>
       <use xlink:href="#m0258bccd8d" x="175.489375" y="325.718437" style="stroke: #000000; stroke-width: 0.8"/>
      </g>
     </g>
     <g id="text_6">
      <text style="font-size: 9px; font-family: 'DejaVu Sans'; text-anchor: middle" x="175.489375" y="339.557031" transform="rotate(-0 175.489375 339.557031)">6</text>
     </g>
    </g>
    <g id="xtick_7">
     <g id="line2d_13">
      <path d="M 199.204375 325.718437 
L 199.204375 20.798437 
" clip-path="url(#p7c14e3e7be)" style="fill: none; stroke: #b0b0b0; stroke-opacity: 0.25; stroke-width: 0.6; stroke-linecap: square"/>
     </g>
     <g id="line2d_14">
      <g>
       <use xlink:href="#m0258bccd8d" x="199.204375" y="325.718437" style="stroke: #000000; stroke-width: 0.8"/>
      </g>
     </g>
     <g id="text_7">
      <text style="font-size: 9px; font-family: 'DejaVu Sans'; text-anchor: middle" x="199.204375" y="339.557031" transform="rotate(-0 199.204375 339.557031)">7</text>
     </g>
    </g>
    <g id="xtick_8">
     <g id="line2d_15">
      <path d="M 222.919375 325.718437 
L 222.919375 20.798437 
" clip-path="url(#p7c14e3e7be)" style="fill: none; stroke: #b0b0b0; stroke-opacity: 0.25; stroke-width: 0.6; stroke-linecap: square"/>
     </g>
     <g id="line2d_16">
      <g>
       <use xlink:href="#m0258bccd8d" x="222.919375" y="325.718437" style="stroke: #000000; stroke-width: 0.8"/>
      </g>
     </g>
     <g id="text_8">
      <text style="font-size: 9px; font-family: 'DejaVu Sans'; text-anchor: middle" x="222.919375" y="339.557031" transform="rotate(-0 222.919375 339.557031)">8</text>
     </g>
    </g>
    <g id="xtick_9">
     <g id="line2d_17">
      <path d="M 246.634375 325.718437 
L 246.634375 20.798437 
" clip-path="url(#p7c14e3e7be)" style="fill: none; stroke: #b0b0b0; stroke-opacity: 0.25; stroke-width: 0.6; stroke-linecap: square"/>
     </g>
     <g id="line2d_18">
      <g>
       <use xlink:href="#m0258bccd8d" x="246.634375" y="325.718437" style="stroke: #000000; stroke-width: 0.8"/>
      </g>
     </g>
     <g id="text_9">
      <text style="font-size: 9px; font-family: 'DejaVu Sans'; text-anchor: middle" x="246.634375" y="339.557031" transform="rotate(-0 246.634375 339.557031)">9</text>
     </g>
    </g>
    <g id="xtick_10">
     <g id="line2d_19">
      <path d="M 270.349375 325.718437 
L 270.349375 20.798437 
" clip-path="url(#p7c14e3e7be)" style="fill: none; stroke: #b0b0b0; stroke-opacity: 0.25; stroke-width: 0.6; stroke-linecap: square"/>
     </g>
     <g id="line2d_20">
      <g>
       <use xlink:href="#m0258bccd8d" x="270.349375" y="325.718437" style="stroke: #000000; stroke-width: 0.8"/>
      </g>
     </g>
     <g id="text_10">
      <text style="font-size: 9px; font-family: 'DejaVu Sans'; text-anchor: middle" x="270.349375" y="339.557031" transform="rotate(-0 270.349375 339.557031)">10</text>
     </g>
    </g>
    <g id="xtick_11">
     <g id="line2d_21">
      <path d="M 294.064375 325.718437 
L 294.064375 20.798437 
" clip-path="url(#p7c14e3e7be)" style="fill: none; stroke: #b0b0b0; stroke-opacity: 0.25; stroke-width: 0.6; stroke-linecap: square"/>
     </g>
     <g id="line2d_22">
      <g>
       <use xlink:href="#m0258bccd8d" x="294.064375" y="325.718437" style="stroke: #000000; stroke-width: 0.8"/>
      </g>
     </g>
     <g id="text_11">
      <text style="font-size: 9px; font-family: 'DejaVu Sans'; text-anchor: middle" x="294.064375" y="339.557031" transform="rotate(-0 294.064375 339.557031)">11</text>
     </g>
    </g>
    <g id="xtick_12">
     <g id="line2d_23">
      <path d="M 317.779375 325.718437 
L 317.779375 20.798437 
" clip-path="url(#p7c14e3e7be)" style="fill: none; stroke: #b0b0b0; stroke-opacity: 0.25; stroke-width: 0.6; stroke-linecap: square"/>
     </g>
     <g id="line2d_24">
      <g>
       <use xlink:href="#m0258bccd8d" x="317.779375" y="325.718437" style="stroke: #000000; stroke-width: 0.8"/>
      </g>
     </g>
     <g id="text_12">
      <text style="font-size: 9px; font-family: 'DejaVu Sans'; text-anchor: middle" x="317.779375" y="339.557031" transform="rotate(-0 317.779375 339.557031)">12</text>
     </g>
    </g>
    <g id="xtick_13">
     <g id="line2d_25">
      <path d="M 341.494375 325.718437 
L 341.494375 20.798437 
" clip-path="url(#p7c14e3e7be)" style="fill: none; stroke: #b0b0b0; stroke-opacity: 0.25; stroke-width: 0.6; stroke-linecap: square"/>
     </g>
     <g id="line2d_26">
      <g>
       <use xlink:href="#m0258bccd8d" x="341.494375" y="325.718437" style="stroke: #000000; stroke-width: 0.8"/>
      </g>
     </g>
     <g id="text_13">
      <text style="font-size: 9px; font-family: 'DejaVu Sans'; text-anchor: middle" x="341.494375" y="339.557031" transform="rotate(-0 341.494375 339.557031)">13</text>
     </g>
    </g>
    <g id="xtick_14">
     <g id="line2d_27">
      <path d="M 365.209375 325.718437 
L 365.209375 20.798437 
" clip-path="url(#p7c14e3e7be)" style="fill: none; stroke: #b0b0b0; stroke-opacity: 0.25; stroke-width: 0.6; stroke-linecap: square"/>
     </g>
     <g id="line2d_28">
      <g>
       <use xlink:href="#m0258bccd8d" x="365.209375" y="325.718437" style="stroke: #000000; stroke-width: 0.8"/>
      </g>
     </g>
     <g id="text_14">
      <text style="font-size: 9px; font-family: 'DejaVu Sans'; text-anchor: middle" x="365.209375" y="339.557031" transform="rotate(-0 365.209375 339.557031)">14</text>
     </g>
    </g>
    <g id="xtick_15">
     <g id="line2d_29">
      <path d="M 388.924375 325.718437 
L 388.924375 20.798437 
" clip-path="url(#p7c14e3e7be)" style="fill: none; stroke: #b0b0b0; stroke-opacity: 0.25; stroke-width: 0.6; stroke-linecap: square"/>
     </g>
     <g id="line2d_30">
      <g>
       <use xlink:href="#m0258bccd8d" x="388.924375" y="325.718437" style="stroke: #000000; stroke-width: 0.8"/>
      </g>
     </g>
     <g id="text_15">
      <text style="font-size: 9px; font-family: 'DejaVu Sans'; text-anchor: middle" x="388.924375" y="339.557031" transform="rotate(-0 388.924375 339.557031)">15</text>
     </g>
    </g>
    <g id="xtick_16">
     <g id="line2d_31">
      <path d="M 412.639375 325.718437 
L 412.639375 20.798437 
" clip-path="url(#p7c14e3e7be)" style="fill: none; stroke: #b0b0b0; stroke-opacity: 0.25; stroke-width: 0.6; stroke-linecap: square"/>
     </g>
     <g id="line2d_32">
      <g>
       <use xlink:href="#m0258bccd8d" x="412.639375" y="325.718437" style="stroke: #000000; stroke-width: 0.8"/>
      </g>
     </g>
     <g id="text_16">
      <text style="font-size: 9px; font-family: 'DejaVu Sans'; text-anchor: middle" x="412.639375" y="339.557031" transform="rotate(-0 412.639375 339.557031)">16</text>
     </g>
    </g>
    <g id="xtick_17">
     <g id="line2d_33">
      <path d="M 436.354375 325.718437 
L 436.354375 20.798437 
" clip-path="url(#p7c14e3e7be)" style="fill: none; stroke: #b0b0b0; stroke-opacity: 0.25; stroke-width: 0.6; stroke-linecap: square"/>
     </g>
     <g id="line2d_34">
      <g>
       <use xlink:href="#m0258bccd8d" x="436.354375" y="325.718437" style="stroke: #000000; stroke-width: 0.8"/>
      </g>
     </g>
     <g id="text_17">
      <text style="font-size: 9px; font-family: 'DejaVu Sans'; text-anchor: middle" x="436.354375" y="339.557031" transform="rotate(-0 436.354375 339.557031)">17</text>
     </g>
    </g>
    <g id="xtick_18">
     <g id="line2d_35">
      <path d="M 460.069375 325.718437 
L 460.069375 20.798437 
" clip-path="url(#p7c14e3e7be)" style="fill: none; stroke: #b0b0b0; stroke-opacity: 0.25; stroke-width: 0.6; stroke-linecap: square"/>
     </g>
     <g id="line2d_36">
      <g>
       <use xlink:href="#m0258bccd8d" x="460.069375" y="325.718437" style="stroke: #000000; stroke-width: 0.8"/>
      </g>
     </g>
     <g id="text_18">
      <text style="font-size: 9px; font-family: 'DejaVu Sans'; text-anchor: middle" x="460.069375" y="339.557031" transform="rotate(-0 460.069375 339.557031)">18</text>
     </g>
    </g>
    <g id="xtick_19">
     <g id="line2d_37">
      <path d="M 483.784375 325.718437 
L 483.784375 20.798437 
" clip-path="url(#p7c14e3e7be)" style="fill: none; stroke: #b0b0b0; stroke-opacity: 0.25; stroke-width: 0.6; stroke-linecap: square"/>
     </g>
     <g id="line2d_38">
      <g>
       <use xlink:href="#m0258bccd8d" x="483.784375" y="325.718437" style="stroke: #000000; stroke-width: 0.8"/>
      </g>
     </g>
     <g id="text_19">
      <text style="font-size: 9px; font-family: 'DejaVu Sans'; text-anchor: middle" x="483.784375" y="339.557031" transform="rotate(-0 483.784375 339.557031)">19</text>
     </g>
    </g>
    <g id="xtick_20">
     <g id="line2d_39">
      <path d="M 507.499375 325.718437 
L 507.499375 20.798437 
" clip-path="url(#p7c14e3e7be)" style="fill: none; stroke: #b0b0b0; stroke-opacity: 0.25; stroke-width: 0.6; stroke-linecap: square"/>
     </g>
     <g id="line2d_40">
      <g>
       <use xlink:href="#m0258bccd8d" x="507.499375" y="325.718437" style="stroke: #000000; stroke-width: 0.8"/>
      </g>
     </g>
     <g id="text_20">
      <text style="font-size: 9px; font-family: 'DejaVu Sans'; text-anchor: middle" x="507.499375" y="339.557031" transform="rotate(-0 507.499375 339.557031)">20</text>
     </g>
    </g>
    <g id="text_21">
     <text style="font-size: 10px; font-family: 'DejaVu Sans'; text-anchor: middle" x="282.206875" y="353.027187" transform="rotate(-0 282.206875 353.027187)">Minimum N tests passed (of 20)</text>
    </g>
   </g>
   <g id="matplotlib.axis_2">
    <g id="ytick_1">
     <g id="line2d_41">
      <path d="M 45.056875 325.718437 
L 519.356875 325.718437 
" clip-path="url(#p7c14e3e7be)" style="fill: none; stroke: #b0b0b0; stroke-opacity: 0.25; stroke-width: 0.6; stroke-linecap: square"/>
     </g>
     <g id="line2d_42">
      <defs>
       <path id="m2b729e5a38" d="M 0 0 
L -3.5 0 
" style="stroke: #000000; stroke-width: 0.8"/>
      </defs>
      <g>
       <use xlink:href="#m2b729e5a38" x="45.056875" y="325.718437" style="stroke: #000000; stroke-width: 0.8"/>
      </g>
     </g>
     <g id="text_22">
      <text style="font-size: 9px; font-family: 'DejaVu Sans'; text-anchor: end" x="38.056875" y="329.137734" transform="rotate(-0 38.056875 329.137734)">0</text>
     </g>
    </g>
    <g id="ytick_2">
     <g id="line2d_43">
      <path d="M 45.056875 264.734437 
L 519.356875 264.734437 
" clip-path="url(#p7c14e3e7be)" style="fill: none; stroke: #b0b0b0; stroke-opacity: 0.25; stroke-width: 0.6; stroke-linecap: square"/>
     </g>
     <g id="line2d_44">
      <g>
       <use xlink:href="#m2b729e5a38" x="45.056875" y="264.734437" style="stroke: #000000; stroke-width: 0.8"/>
      </g>
     </g>
     <g id="text_23">
      <text style="font-size: 9px; font-family: 'DejaVu Sans'; text-anchor: end" x="38.056875" y="268.153734" transform="rotate(-0 38.056875 268.153734)">20</text>
     </g>
    </g>
    <g id="ytick_3">
     <g id="line2d_45">
      <path d="M 45.056875 203.750437 
L 519.356875 203.750437 
" clip-path="url(#p7c14e3e7be)" style="fill: none; stroke: #b0b0b0; stroke-opacity: 0.25; stroke-width: 0.6; stroke-linecap: square"/>
     </g>
     <g id="line2d_46">
      <g>
       <use xlink:href="#m2b729e5a38" x="45.056875" y="203.750437" style="stroke: #000000; stroke-width: 0.8"/>
      </g>
     </g>
     <g id="text_24">
      <text style="font-size: 9px; font-family: 'DejaVu Sans'; text-anchor: end" x="38.056875" y="207.169734" transform="rotate(-0 38.056875 207.169734)">40</text>
     </g>
    </g>
    <g id="ytick_4">
     <g id="line2d_47">
      <path d="M 45.056875 142.766437 
L 519.356875 142.766437 
" clip-path="url(#p7c14e3e7be)" style="fill: none; stroke: #b0b0b0; stroke-opacity: 0.25; stroke-width: 0.6; stroke-linecap: square"/>
     </g>
     <g id="line2d_48">
      <g>
       <use xlink:href="#m2b729e5a38" x="45.056875" y="142.766437" style="stroke: #000000; stroke-width: 0.8"/>
      </g>
     </g>
     <g id="text_25">
      <text style="font-size: 9px; font-family: 'DejaVu Sans'; text-anchor: end" x="38.056875" y="146.185734" transform="rotate(-0 38.056875 146.185734)">60</text>
     </g>
    </g>
    <g id="ytick_5">
     <g id="line2d_49">
      <path d="M 45.056875 81.782437 
L 519.356875 81.782437 
" clip-path="url(#p7c14e3e7be)" style="fill: none; stroke: #b0b0b0; stroke-opacity: 0.25; stroke-width: 0.6; stroke-linecap: square"/>
     </g>
     <g id="line2d_50">
      <g>
       <use xlink:href="#m2b729e5a38" x="45.056875" y="81.782437" style="stroke: #000000; stroke-width: 0.8"/>
      </g>
     </g>
     <g id="text_26">
      <text style="font-size: 9px; font-family: 'DejaVu Sans'; text-anchor: end" x="38.056875" y="85.201734" transform="rotate(-0 38.056875 85.201734)">80</text>
     </g>
    </g>
    <g id="ytick_6">
     <g id="line2d_51">
      <path d="M 45.056875 20.798437 
L 519.356875 20.798437 
" clip-path="url(#p7c14e3e7be)" style="fill: none; stroke: #b0b0b0; stroke-opacity: 0.25; stroke-width: 0.6; stroke-linecap: square"/>
     </g>
     <g id="line2d_52">
      <g>
       <use xlink:href="#m2b729e5a38" x="45.056875" y="20.798437" style="stroke: #000000; stroke-width: 0.8"/>
      </g>
     </g>
     <g id="text_27">
      <text style="font-size: 9px; font-family: 'DejaVu Sans'; text-anchor: end" x="38.056875" y="24.217734" transform="rotate(-0 38.056875 24.217734)">100</text>
     </g>
    </g>
    <g id="text_28">
     <text style="font-size: 10px; font-family: 'DejaVu Sans'; text-anchor: middle" x="14.798437" y="173.258437" transform="rotate(-90 14.798437 173.258437)">% ligands</text>
    </g>
   </g>
   <g id="line2d_53">
    <path d="M 56.914375 20.798437 
L 80.629375 20.798437 
L 104.344375 20.798437 
L 128.059375 20.798437 
L 151.774375 20.798437 
L 175.489375 20.798437 
L 199.204375 20.798437 
L 222.919375 20.798437 
L 246.634375 20.798437 
L 270.349375 20.798437 
L 294.064375 20.798437 
L 317.779375 27.299877 
L 341.494375 98.591523 
L 365.209375 98.591523 
L 388.924375 98.591523 
L 412.639375 98.591523 
L 436.354375 98.591523 
L 460.069375 98.591523 
L 483.784375 99.936648 
L 507.499375 144.699433 
" clip-path="url(#p7c14e3e7be)" style="fill: none; stroke: #e5885f; stroke-width: 2; stroke-linecap: square"/>
    <defs>
     <path id="m808d5264aa" d="M 0 1.75 
C 0.464105 1.75 0.909265 1.565609 1.237437 1.237437 
C 1.565609 0.909265 1.75 0.464105 1.75 0 
C 1.75 -0.464105 1.565609 -0.909265 1.237437 -1.237437 
C 0.909265 -1.565609 0.464105 -1.75 0 -1.75 
C -0.464105 -1.75 -0.909265 -1.565609 -1.237437 -1.237437 
C -1.565609 -0.909265 -1.75 -0.464105 -1.75 0 
C -1.75 0.464105 -1.565609 0.909265 -1.237437 1.237437 
C -0.909265 1.565609 -0.464105 1.75 0 1.75 
z
" style="stroke: #e5885f"/>
    </defs>
    <g clip-path="url(#p7c14e3e7be)">
     <use xlink:href="#m808d5264aa" x="56.914375" y="20.798437" style="fill: #e5885f; stroke: #e5885f"/>
     <use xlink:href="#m808d5264aa" x="80.629375" y="20.798437" style="fill: #e5885f; stroke: #e5885f"/>
     <use xlink:href="#m808d5264aa" x="104.344375" y="20.798437" style="fill: #e5885f; stroke: #e5885f"/>
     <use xlink:href="#m808d5264aa" x="128.059375" y="20.798437" style="fill: #e5885f; stroke: #e5885f"/>
     <use xlink:href="#m808d5264aa" x="151.774375" y="20.798437" style="fill: #e5885f; stroke: #e5885f"/>
     <use xlink:href="#m808d5264aa" x="175.489375" y="20.798437" style="fill: #e5885f; stroke: #e5885f"/>
     <use xlink:href="#m808d5264aa" x="199.204375" y="20.798437" style="fill: #e5885f; stroke: #e5885f"/>
     <use xlink:href="#m808d5264aa" x="222.919375" y="20.798437" style="fill: #e5885f; stroke: #e5885f"/>
     <use xlink:href="#m808d5264aa" x="246.634375" y="20.798437" style="fill: #e5885f; stroke: #e5885f"/>
     <use xlink:href="#m808d5264aa" x="270.349375" y="20.798437" style="fill: #e5885f; stroke: #e5885f"/>
     <use xlink:href="#m808d5264aa" x="294.064375" y="20.798437" style="fill: #e5885f; stroke: #e5885f"/>
     <use xlink:href="#m808d5264aa" x="317.779375" y="27.299877" style="fill: #e5885f; stroke: #e5885f"/>
     <use xlink:href="#m808d5264aa" x="341.494375" y="98.591523" style="fill: #e5885f; stroke: #e5885f"/>
     <use xlink:href="#m808d5264aa" x="365.209375" y="98.591523" style="fill: #e5885f; stroke: #e5885f"/>
     <use xlink:href="#m808d5264aa" x="388.924375" y="98.591523" style="fill: #e5885f; stroke: #e5885f"/>
     <use xlink:href="#m808d5264aa" x="412.639375" y="98.591523" style="fill: #e5885f; stroke: #e5885f"/>
     <use xlink:href="#m808d5264aa" x="436.354375" y="98.591523" style="fill: #e5885f; stroke: #e5885f"/>
     <use xlink:href="#m808d5264aa" x="460.069375" y="98.591523" style="fill: #e5885f; stroke: #e5885f"/>
     <use xlink:href="#m808d5264aa" x="483.784375" y="99.936648" style="fill: #e5885f; stroke: #e5885f"/>
     <use xlink:href="#m808d5264aa" x="507.499375" y="144.699433" style="fill: #e5885f; stroke: #e5885f"/>
    </g>
   </g>
   <g id="line2d_54">
    <path d="M 56.914375 20.798437 
L 80.629375 20.798437 
L 104.344375 20.798437 
L 128.059375 20.798437 
L 151.774375 20.798437 
L 175.489375 20.798437 
L 199.204375 20.798437 
L 222.919375 20.798437 
L 246.634375 20.798437 
L 270.349375 20.798437 
L 294.064375 20.798437 
L 317.779375 20.798437 
L 341.494375 20.798437 
L 365.209375 20.798437 
L 388.924375 20.798437 
L 412.639375 20.798437 
L 436.354375 21.020541 
L 460.069375 22.714078 
L 483.784375 84.236678 
L 507.499375 270.775646 
" clip-path="url(#p7c14e3e7be)" style="fill: none; stroke: #fdbaaa; stroke-width: 2; stroke-linecap: square"/>
    <defs>
     <path id="m3a082f1e42" d="M 0 1.75 
C 0.464105 1.75 0.909265 1.565609 1.237437 1.237437 
C 1.565609 0.909265 1.75 0.464105 1.75 0 
C 1.75 -0.464105 1.565609 -0.909265 1.237437 -1.237437 
C 0.909265 -1.565609 0.464105 -1.75 0 -1.75 
C -0.464105 -1.75 -0.909265 -1.565609 -1.237437 -1.237437 
C -1.565609 -0.909265 -1.75 -0.464105 -1.75 0 
C -1.75 0.464105 -1.565609 0.909265 -1.237437 1.237437 
C -0.909265 1.565609 -0.464105 1.75 0 1.75 
z
" style="stroke: #fdbaaa"/>
    </defs>
    <g clip-path="url(#p7c14e3e7be)">
     <use xlink:href="#m3a082f1e42" x="56.914375" y="20.798437" style="fill: #fdbaaa; stroke: #fdbaaa"/>
     <use xlink:href="#m3a082f1e42" x="80.629375" y="20.798437" style="fill: #fdbaaa; stroke: #fdbaaa"/>
     <use xlink:href="#m3a082f1e42" x="104.344375" y="20.798437" style="fill: #fdbaaa; stroke: #fdbaaa"/>
     <use xlink:href="#m3a082f1e42" x="128.059375" y="20.798437" style="fill: #fdbaaa; stroke: #fdbaaa"/>
     <use xlink:href="#m3a082f1e42" x="151.774375" y="20.798437" style="fill: #fdbaaa; stroke: #fdbaaa"/>
     <use xlink:href="#m3a082f1e42" x="175.489375" y="20.798437" style="fill: #fdbaaa; stroke: #fdbaaa"/>
     <use xlink:href="#m3a082f1e42" x="199.204375" y="20.798437" style="fill: #fdbaaa; stroke: #fdbaaa"/>
     <use xlink:href="#m3a082f1e42" x="222.919375" y="20.798437" style="fill: #fdbaaa; stroke: #fdbaaa"/>
     <use xlink:href="#m3a082f1e42" x="246.634375" y="20.798437" style="fill: #fdbaaa; stroke: #fdbaaa"/>
     <use xlink:href="#m3a082f1e42" x="270.349375" y="20.798437" style="fill: #fdbaaa; stroke: #fdbaaa"/>
     <use xlink:href="#m3a082f1e42" x="294.064375" y="20.798437" style="fill: #fdbaaa; stroke: #fdbaaa"/>
     <use xlink:href="#m3a082f1e42" x="317.779375" y="20.798437" style="fill: #fdbaaa; stroke: #fdbaaa"/>
     <use xlink:href="#m3a082f1e42" x="341.494375" y="20.798437" style="fill: #fdbaaa; stroke: #fdbaaa"/>
     <use xlink:href="#m3a082f1e42" x="365.209375" y="20.798437" style="fill: #fdbaaa; stroke: #fdbaaa"/>
     <use xlink:href="#m3a082f1e42" x="388.924375" y="20.798437" style="fill: #fdbaaa; stroke: #fdbaaa"/>
     <use xlink:href="#m3a082f1e42" x="412.639375" y="20.798437" style="fill: #fdbaaa; stroke: #fdbaaa"/>
     <use xlink:href="#m3a082f1e42" x="436.354375" y="21.020541" style="fill: #fdbaaa; stroke: #fdbaaa"/>
     <use xlink:href="#m3a082f1e42" x="460.069375" y="22.714078" style="fill: #fdbaaa; stroke: #fdbaaa"/>
     <use xlink:href="#m3a082f1e42" x="483.784375" y="84.236678" style="fill: #fdbaaa; stroke: #fdbaaa"/>
     <use xlink:href="#m3a082f1e42" x="507.499375" y="270.775646" style="fill: #fdbaaa; stroke: #fdbaaa"/>
    </g>
   </g>
   <g id="line2d_55">
    <path d="M 56.914375 20.798437 
L 80.629375 20.798437 
L 104.344375 20.798437 
L 128.059375 20.798437 
L 151.774375 28.039732 
L 175.489375 28.039732 
L 199.204375 28.108047 
L 222.919375 28.108047 
L 246.634375 28.142204 
L 270.349375 29.303543 
L 294.064375 37.876963 
L 317.779375 137.786339 
L 341.494375 259.795328 
L 365.209375 261.844751 
L 388.924375 263.552604 
L 412.639375 266.729209 
L 436.354375 273.868033 
L 460.069375 288.623879 
L 483.784375 301.227831 
L 507.499375 313.763469 
" clip-path="url(#p7c14e3e7be)" style="fill: none; stroke: #afc6f2; stroke-width: 2; stroke-linecap: square"/>
    <defs>
     <path id="m325465fc97" d="M 0 1.75 
C 0.464105 1.75 0.909265 1.565609 1.237437 1.237437 
C 1.565609 0.909265 1.75 0.464105 1.75 0 
C 1.75 -0.464105 1.565609 -0.909265 1.237437 -1.237437 
C 0.909265 -1.565609 0.464105 -1.75 0 -1.75 
C -0.464105 -1.75 -0.909265 -1.565609 -1.237437 -1.237437 
C -1.565609 -0.909265 -1.75 -0.464105 -1.75 0 
C -1.75 0.464105 -1.565609 0.909265 -1.237437 1.237437 
C -0.909265 1.565609 -0.464105 1.75 0 1.75 
z
" style="stroke: #afc6f2"/>
    </defs>
    <g clip-path="url(#p7c14e3e7be)">
     <use xlink:href="#m325465fc97" x="56.914375" y="20.798437" style="fill: #afc6f2; stroke: #afc6f2"/>
     <use xlink:href="#m325465fc97" x="80.629375" y="20.798437" style="fill: #afc6f2; stroke: #afc6f2"/>
     <use xlink:href="#m325465fc97" x="104.344375" y="20.798437" style="fill: #afc6f2; stroke: #afc6f2"/>
     <use xlink:href="#m325465fc97" x="128.059375" y="20.798437" style="fill: #afc6f2; stroke: #afc6f2"/>
     <use xlink:href="#m325465fc97" x="151.774375" y="28.039732" style="fill: #afc6f2; stroke: #afc6f2"/>
     <use xlink:href="#m325465fc97" x="175.489375" y="28.039732" style="fill: #afc6f2; stroke: #afc6f2"/>
     <use xlink:href="#m325465fc97" x="199.204375" y="28.108047" style="fill: #afc6f2; stroke: #afc6f2"/>
     <use xlink:href="#m325465fc97" x="222.919375" y="28.108047" style="fill: #afc6f2; stroke: #afc6f2"/>
     <use xlink:href="#m325465fc97" x="246.634375" y="28.142204" style="fill: #afc6f2; stroke: #afc6f2"/>
     <use xlink:href="#m325465fc97" x="270.349375" y="29.303543" style="fill: #afc6f2; stroke: #afc6f2"/>
     <use xlink:href="#m325465fc97" x="294.064375" y="37.876963" style="fill: #afc6f2; stroke: #afc6f2"/>
     <use xlink:href="#m325465fc97" x="317.779375" y="137.786339" style="fill: #afc6f2; stroke: #afc6f2"/>
     <use xlink:href="#m325465fc97" x="341.494375" y="259.795328" style="fill: #afc6f2; stroke: #afc6f2"/>
     <use xlink:href="#m325465fc97" x="365.209375" y="261.844751" style="fill: #afc6f2; stroke: #afc6f2"/>
     <use xlink:href="#m325465fc97" x="388.924375" y="263.552604" style="fill: #afc6f2; stroke: #afc6f2"/>
     <use xlink:href="#m325465fc97" x="412.639375" y="266.729209" style="fill: #afc6f2; stroke: #afc6f2"/>
     <use xlink:href="#m325465fc97" x="436.354375" y="273.868033" style="fill: #afc6f2; stroke: #afc6f2"/>
     <use xlink:href="#m325465fc97" x="460.069375" y="288.623879" style="fill: #afc6f2; stroke: #afc6f2"/>
     <use xlink:href="#m325465fc97" x="483.784375" y="301.227831" style="fill: #afc6f2; stroke: #afc6f2"/>
     <use xlink:href="#m325465fc97" x="507.499375" y="313.763469" style="fill: #afc6f2; stroke: #afc6f2"/>
    </g>
   </g>
   <g id="line2d_56">
    <path d="M 56.914375 20.798437 
L 80.629375 20.798437 
L 104.344375 20.798437 
L 128.059375 20.798437 
L 151.774375 27.377078 
L 175.489375 27.586399 
L 199.204375 27.586399 
L 222.919375 27.586399 
L 246.634375 27.855525 
L 270.349375 29.14135 
L 294.064375 31.50368 
L 317.779375 132.904457 
L 341.494375 243.09669 
L 365.209375 243.575137 
L 388.924375 244.681544 
L 412.639375 246.774748 
L 436.354375 255.865234 
L 460.069375 284.123486 
L 483.784375 300.241156 
L 507.499375 314.385234 
" clip-path="url(#p7c14e3e7be)" style="fill: none; stroke: #6584e1; stroke-width: 2; stroke-linecap: square"/>
    <defs>
     <path id="me09926dde9" d="M 0 1.75 
C 0.464105 1.75 0.909265 1.565609 1.237437 1.237437 
C 1.565609 0.909265 1.75 0.464105 1.75 0 
C 1.75 -0.464105 1.565609 -0.909265 1.237437 -1.237437 
C 0.909265 -1.565609 0.464105 -1.75 0 -1.75 
C -0.464105 -1.75 -0.909265 -1.565609 -1.237437 -1.237437 
C -1.565609 -0.909265 -1.75 -0.464105 -1.75 0 
C -1.75 0.464105 -1.565609 0.909265 -1.237437 1.237437 
C -0.909265 1.565609 -0.464105 1.75 0 1.75 
z
" style="stroke: #6584e1"/>
    </defs>
    <g clip-path="url(#p7c14e3e7be)">
     <use xlink:href="#me09926dde9" x="56.914375" y="20.798437" style="fill: #6584e1; stroke: #6584e1"/>
     <use xlink:href="#me09926dde9" x="80.629375" y="20.798437" style="fill: #6584e1; stroke: #6584e1"/>
     <use xlink:href="#me09926dde9" x="104.344375" y="20.798437" style="fill: #6584e1; stroke: #6584e1"/>
     <use xlink:href="#me09926dde9" x="128.059375" y="20.798437" style="fill: #6584e1; stroke: #6584e1"/>
     <use xlink:href="#me09926dde9" x="151.774375" y="27.377078" style="fill: #6584e1; stroke: #6584e1"/>
     <use xlink:href="#me09926dde9" x="175.489375" y="27.586399" style="fill: #6584e1; stroke: #6584e1"/>
     <use xlink:href="#me09926dde9" x="199.204375" y="27.586399" style="fill: #6584e1; stroke: #6584e1"/>
     <use xlink:href="#me09926dde9" x="222.919375" y="27.586399" style="fill: #6584e1; stroke: #6584e1"/>
     <use xlink:href="#me09926dde9" x="246.634375" y="27.855525" style="fill: #6584e1; stroke: #6584e1"/>
     <use xlink:href="#me09926dde9" x="270.349375" y="29.14135" style="fill: #6584e1; stroke: #6584e1"/>
     <use xlink:href="#me09926dde9" x="294.064375" y="31.50368" style="fill: #6584e1; stroke: #6584e1"/>
     <use xlink:href="#me09926dde9" x="317.779375" y="132.904457" style="fill: #6584e1; stroke: #6584e1"/>
     <use xlink:href="#me09926dde9" x="341.494375" y="243.09669" style="fill: #6584e1; stroke: #6584e1"/>
     <use xlink:href="#me09926dde9" x="365.209375" y="243.575137" style="fill: #6584e1; stroke: #6584e1"/>
     <use xlink:href="#me09926dde9" x="388.924375" y="244.681544" style="fill: #6584e1; stroke: #6584e1"/>
     <use xlink:href="#me09926dde9" x="412.639375" y="246.774748" style="fill: #6584e1; stroke: #6584e1"/>
     <use xlink:href="#me09926dde9" x="436.354375" y="255.865234" style="fill: #6584e1; stroke: #6584e1"/>
     <use xlink:href="#me09926dde9" x="460.069375" y="284.123486" style="fill: #6584e1; stroke: #6584e1"/>
     <use xlink:href="#me09926dde9" x="483.784375" y="300.241156" style="fill: #6584e1; stroke: #6584e1"/>
     <use xlink:href="#me09926dde9" x="507.499375" y="314.385234" style="fill: #6584e1; stroke: #6584e1"/>
    </g>
   </g>
   <g id="patch_3">
    <path d="M 45.056875 325.718437 
L 45.056875 20.798437 
" style="fill: none; stroke: #000000; stroke-width: 0.8; stroke-linejoin: miter; stroke-linecap: square"/>
   </g>
   <g id="patch_4">
    <path d="M 519.356875 325.718437 
L 519.356875 20.798437 
" style="fill: none; stroke: #000000; stroke-width: 0.8; stroke-linejoin: miter; stroke-linecap: square"/>
   </g>
   <g id="patch_5">
    <path d="M 45.056875 325.718437 
L 519.356875 325.718437 
" style="fill: none; stroke: #000000; stroke-width: 0.8; stroke-linejoin: miter; stroke-linecap: square"/>
   </g>
   <g id="patch_6">
    <path d="M 45.056875 20.798437 
L 519.356875 20.798437 
" style="fill: none; stroke: #000000; stroke-width: 0.8; stroke-linejoin: miter; stroke-linecap: square"/>
   </g>
   <g id="text_29">
    <text style="font-size: 10px; font-family: 'DejaVu Sans'; text-anchor: middle" x="282.206875" y="14.798437" transform="rotate(-0 282.206875 14.798437)">All targets: ligands passing at least N tests</text>
   </g>
   <g id="legend_1">
    <g id="patch_7">
     <path d="M 51.356875 80.839687 
L 139.940781 80.839687 
Q 141.740781 80.839687 141.740781 79.039687 
L 141.740781 27.098437 
Q 141.740781 25.298437 139.940781 25.298437 
L 51.356875 25.298437 
Q 49.556875 25.298437 49.556875 27.098437 
L 49.556875 79.039687 
Q 49.556875 80.839687 51.356875 80.839687 
z
" style="fill: #ffffff; opacity: 0.9; stroke: #cccccc; stroke-linejoin: miter"/>
    </g>
    <g id="line2d_57">
     <path d="M 53.156875 32.587031 
L 62.156875 32.587031 
L 71.156875 32.587031 
" style="fill: none; stroke: #e5885f; stroke-width: 2; stroke-linecap: square"/>
     <g>
      <use xlink:href="#m808d5264aa" x="62.156875" y="32.587031" style="fill: #e5885f; stroke: #e5885f"/>
     </g>
    </g>
    <g id="text_30">
     <text style="font-size: 9px; font-family: 'DejaVu Sans'; text-anchor: start" x="78.356875" y="35.737031" transform="rotate(-0 78.356875 35.737031)">Boltz-2</text>
    </g>
    <g id="line2d_58">
     <path d="M 53.156875 45.797344 
L 62.156875 45.797344 
L 71.156875 45.797344 
" style="fill: none; stroke: #fdbaaa; stroke-width: 2; stroke-linecap: square"/>
     <g>
      <use xlink:href="#m3a082f1e42" x="62.156875" y="45.797344" style="fill: #fdbaaa; stroke: #fdbaaa"/>
     </g>
    </g>
    <g id="text_31">
     <text style="font-size: 9px; font-family: 'DejaVu Sans'; text-anchor: start" x="78.356875" y="48.947344" transform="rotate(-0 78.356875 48.947344)">DynamicBind</text>
    </g>
    <g id="line2d_59">
     <path d="M 53.156875 59.007656 
L 62.156875 59.007656 
L 71.156875 59.007656 
" style="fill: none; stroke: #afc6f2; stroke-width: 2; stroke-linecap: square"/>
     <g>
      <use xlink:href="#m325465fc97" x="62.156875" y="59.007656" style="fill: #afc6f2; stroke: #afc6f2"/>
     </g>
    </g>
    <g id="text_32">
     <text style="font-size: 9px; font-family: 'DejaVu Sans'; text-anchor: start" x="78.356875" y="62.157656" transform="rotate(-0 78.356875 62.157656)">GNINA 1.3</text>
    </g>
    <g id="line2d_60">
     <path d="M 53.156875 72.217969 
L 62.156875 72.217969 
L 71.156875 72.217969 
" style="fill: none; stroke: #6584e1; stroke-width: 2; stroke-linecap: square"/>
     <g>
      <use xlink:href="#me09926dde9" x="62.156875" y="72.217969" style="fill: #6584e1; stroke: #6584e1"/>
     </g>
    </g>
    <g id="text_33">
     <text style="font-size: 9px; font-family: 'DejaVu Sans'; text-anchor: start" x="78.356875" y="75.367969" transform="rotate(-0 78.356875 75.367969)">QVina2</text>
    </g>
   </g>
  </g>
 </g>
 <defs>
  <clipPath id="p7c14e3e7be">
   <rect x="45.056875" y="20.798437" width="474.3" height="304.92"/>
  </clipPath>
 </defs>
</svg>
